HIERARCHY
ROOT Hips
{
  OFFSET 279.157 85.6768 304.565
  CHANNELS 6 Xposition Yposition Zposition Zrotation Xrotation Yrotation
  JOINT LeftUpLeg
  {
    OFFSET 8.64259 1.95398 -2.38835
    CHANNELS 3 Zrotation Xrotation Yrotation
    JOINT LeftLeg
    {
      OFFSET 43.7702 0 0
      CHANNELS 3 Zrotation Xrotation Yrotation
      JOINT LeftFoot
      {
        OFFSET 40.6238 0 0
        CHANNELS 3 Zrotation Xrotation Yrotation
        JOINT LeftToeBase
        {
          OFFSET 12.7242 0 0
          CHANNELS 3 Zrotation Xrotation Yrotation
          End Site
          {
            OFFSET 0 0 0
          }
        }
      }
    }
  }
  JOINT RightUpLeg
  {
    OFFSET -8.2249 1.95398 -2.59336
    CHANNELS 3 Zrotation Xrotation Yrotation
    JOINT RightLeg
    {
      OFFSET 43.5653 0 0
      CHANNELS 3 Zrotation Xrotation Yrotation
      JOINT RightFoot
      {
        OFFSET 40.6238 0 0
        CHANNELS 3 Zrotation Xrotation Yrotation
        JOINT RightToeBase
        {
          OFFSET 12.7242 0 0
          CHANNELS 3 Zrotation Xrotation Yrotation
          End Site
          {
            OFFSET 0 0 0
          }
        }
      }
    }
  }
  JOINT Spine
  {
    OFFSET 0.165834 0.87714 6.61349
    CHANNELS 3 Zrotation Xrotation Yrotation
    JOINT Spine1
    {
      OFFSET 7.38963 1.71661e-005 0
      CHANNELS 3 Zrotation Xrotation Yrotation
      JOINT Spine2
      {
        OFFSET 11.9445 1.14441e-005 0
        CHANNELS 3 Zrotation Xrotation Yrotation
        JOINT Spine3
        {
          OFFSET 14.7254 4.19617e-005 0
          CHANNELS 3 Zrotation Xrotation Yrotation
          JOINT Spine4
          {
            OFFSET 10.9679 0 0
            CHANNELS 3 Zrotation Xrotation Yrotation
            JOINT RightShoulder
            {
              OFFSET 2.46616 -1.6653 3.69651
              CHANNELS 3 Zrotation Xrotation Yrotation
              JOINT RightArm
              {
                OFFSET 13.0012 0 0
                CHANNELS 3 Zrotation Xrotation Yrotation
                JOINT RightForeArm
                {
                  OFFSET 28.7848 1.52588e-005 0
                  CHANNELS 3 Zrotation Xrotation Yrotation
                  JOINT RightHand
                  {
                    OFFSET 26.5688 1.52588e-005 0
                    CHANNELS 3 Zrotation Xrotation Yrotation
                    End Site
                    {
                      OFFSET 0 0 0
                    }
                  }
                }
              }
            }
            JOINT LeftShoulder
            {
              OFFSET 2.38034 -1.29275 -3.7523
              CHANNELS 3 Zrotation Xrotation Yrotation
              JOINT LeftArm
              {
                OFFSET 16.3182 6.10351e-005 0
                CHANNELS 3 Zrotation Xrotation Yrotation
                JOINT LeftForeArm
                {
                  OFFSET 27.0901 0 0
                  CHANNELS 3 Zrotation Xrotation Yrotation
                  JOINT LeftHand
                  {
                    OFFSET 24.5451 1.52588e-005 0
                    CHANNELS 3 Zrotation Xrotation Yrotation
                    End Site
                    {
                      OFFSET 0 0 0
                    }
                  }
                }
              }
            }
            JOINT Neck
            {
              OFFSET 5.0226 -0.0266342 0
              CHANNELS 3 Zrotation Xrotation Yrotation
              JOINT Head
              {
                OFFSET 6.69364 2.86102e-005 0
                CHANNELS 3 Zrotation Xrotation Yrotation
                End Site
                {
                  OFFSET 0 0 0
                }
              }
            }
          }
        }
      }
    }
  }
}
MOTION
Frames:	14
Frame Time:	0.0416667
-313.09 84.7813 321.986 69.703 46.7036 96.8216 -165.636 50.6111 75.085 -53.8377 11.2341 -6.8912 76.3235 9.71127 0.201689 17.32 -5.8696 -1.0367 173.079 -6.97539 85.459 -36.774 -15.0009 -3.74803 55.6516 1.97038 -0.10093 84.7467 -14.5849 11.6921 2.28767 8.14248 -88.6381 10.539 5.18199 2.24327 -1.12313 5.27567 2.01254 -23.7034 4.26835 3.69837 -3.69077 4.26836 3.69837 91.7429 -17.5612 -108.401 25.3878 -3.67877 -29.2915 4.05486 -9.40008 -18.3074 -32.1346 3.30905 -18.8872 -89.9179 -40.8437 76.6983 -23.6212 2.02041 15.3342 12.7416 26.6543 -24.1536 6.576 -0.588151 -10.7229 50.9124 -9.82081 -2.47121 -20.7451 -7.77421 0.664408 
-305.599 84.1178 314.441 72.5973 50.8563 94.3522 -167.698 42.2746 75.2037 -58.4654 12.1009 -5.11617 83.3873 15.1591 0.583388 25.9715 -1.34078 -0.613328 173.576 0.409145 85.2219 -59.1874 -18.0286 -3.73255 58.2957 0.539201 -1.48338 89.8834 -18.3123 6.37158 1.69121 8.44952 -88.5327 9.92488 4.03696 2.5842 -1.742 4.14676 2.40387 -24.2888 3.07414 3.67786 -4.27617 3.07415 3.67786 89.3031 -22.9496 -111.316 31.0629 -5.78017 -18.4943 -1.49063 -16.778 -23.7099 -26.5887 1.58839 -16.6838 -90.4017 -46.3216 77.2865 -21.2156 4.01929 0.843426 16.2328 26.1755 -30.5499 8.85991 -0.982174 -13.2853 51.563 -11.726 -6.17558 -18.5492 -7.46528 1.87694 
-298.379 84.0371 306.627 73.7005 53.5089 92.6242 -169.856 32.4591 76.0738 -58.0063 8.73833 -4.07286 92.4336 19.0594 -5.21455 29.4936 0.398748 -0.0781521 175.452 17.4351 87.2545 -81.608 -9.08431 -3.96857 66.3317 -5.09429 -4.7621 81.7899 -17.8306 1.18476 1.25069 8.63579 -88.3497 9.549 3.23753 3.02425 -2.12106 3.36745 2.87885 -24.6452 2.17968 3.8567 -4.63256 2.17968 3.8567 88.7558 -27.2855 -110.391 38.7143 -9.32835 -5.38818 0.206195 -18.7889 -22.025 -27.4252 1.16038 -14.8995 -92.0543 -50.7968 75.8669 -15.0537 9.14531 -20.6565 20.5955 30.4021 -38.5837 14.5998 -0.433615 -7.37983 49.6297 -12.7379 -9.09663 -16.0589 -6.8097 1.9224 
-291.26 84.207 298.935 76.4442 53.7559 93.1282 -171.272 20.7244 81.3332 -53.945 8.31158 -2.68461 99.8314 22.0622 -10.1611 33.274 1.8999 2.66281 -179.896 33.9813 88.5228 -93.8132 -0.417217 -4.30838 72.7663 -9.65557 -5.89728 64.4233 -12.2816 -1.19588 0.820708 8.70399 -88.6226 9.42971 2.25599 2.55739 -2.24148 2.36634 2.45566 -24.7642 1.38353 3.11675 -4.75153 1.3835 3.11675 90.1979 -28.3325 -107.009 47.8846 -9.4782 10.3351 -1.09905 -24.6485 -22.692 -28.7815 0.604018 -13.6675 -92.0386 -48.1424 75.2234 -9.2897 13.0843 -40.0044 28.9939 28.1656 -52.9585 8.12968 0.339211 0.236709 45.1424 -11.4563 -11.8144 -13.1808 -4.53927 1.7628 
-283.895 84.629 291.368 74.727 57.5096 100.268 -172.466 10.7806 89.0287 -46.0742 11.2304 -0.0135172 102.839 25.9949 -9.65663 33.1495 1.43182 4.82974 178.416 49.168 92.58 -91.7688 0.845154 -3.31912 79.3385 -11.778 -6.02002 38.2062 -3.2919 2.26785 -0.441678 8.42989 -89.4345 10.016 -0.622916 1.17383 -1.65532 -0.570656 1.2001 -24.1888 -0.946905 0.932379 -4.17611 -0.946889 0.932376 91.6763 -25.0402 -105.215 54.0467 -6.74073 27.3765 -7.19359 -29.1876 -29.7567 -28.6553 0.235675 -13.788 -90.1442 -39.8255 76.0507 -5.89305 10.6009 -51.6998 35.7177 20.6594 -64.391 11.4912 -0.373739 -6.69899 40.2985 -7.81137 -14.0016 -13.1062 -0.774301 3.80772 
-275.167 87.3838 281.182 75.8597 55.7948 103.503 -171.487 -0.423529 95.8491 -32.2106 18.7516 1.41372 82.8211 19.5561 2.4514 46.7627 9.03394 6.89623 178.681 54.1623 94.282 -73.9993 -0.187141 -2.39947 80.4118 -10.6129 -2.53272 17.3973 2.62141 5.71563 -1.44405 8.07823 -90.1339 10.7208 -2.93749 0.00246272 -0.94671 -2.93454 0.131849 -23.5075 -2.80231 -0.881211 -3.49484 -2.8023 -0.881217 91.8013 -21.2076 -106.533 53.7397 -4.85664 41.5913 -12.5029 -27.5805 -37.6364 -28.2384 0.877608 -17.128 -87.5202 -31.9445 78.5967 -5.53664 8.22277 -51.8075 38.4167 14.846 -68.8715 19.6822 -2.48815 -16.93 35.3635 -1.1677 -13.6372 -15.5226 4.54173 4.73722 
-264.527 90.8048 268.797 79.4319 49.9521 105.093 -171.079 -12.1953 96.7581 -25.0197 20.4724 3.67047 58.2847 0.907466 4.35941 38.9042 6.25167 -1.55343 179.697 48.8228 98.3598 -48.3823 -5.70169 -0.930277 74.9078 -7.47685 -0.444701 22.3845 0.988149 6.35903 -1.71574 7.93494 -90.9579 10.9853 -3.85958 -1.5408 -0.680595 -3.92362 -1.36924 -23.2434 -3.21805 -2.63022 -3.23073 -3.21802 -2.63022 91.2052 -18.2769 -109.334 51.4287 -3.32461 48.9334 -16.1122 -25.8454 -42.9286 -29.1308 1.23206 -18.3735 -86.222 -28.1727 80.1074 -4.96145 9.94774 -45.2417 40.1595 10.1334 -73.1113 16.4769 -2.89507 -21.1458 34.1001 5.0542 -10.0851 -20.2096 8.54337 4.51432 
-253.766 91.9514 257.204 80.6219 46.9593 104.115 -173.382 -12.8105 94.4598 -35.0169 24.8083 5.24814 54.1114 -3.1738 3.24618 21.4547 -2.2062 -5.78763 179.863 43.2667 99.0963 -36.6121 -10.8657 -0.176322 74.7381 -8.80199 -2.41054 24.2498 0.604342 5.58273 -1.66069 7.73801 -91.2544 11.3599 -3.88937 -2.10888 -0.306624 -3.97838 -1.93551 -22.8599 -3.076 -3.18054 -2.84727 -3.07598 -3.18054 87.8547 -21.4106 -115.332 44.2002 4.28748 49.939 -14.6425 -23.2505 -43.665 -32.1324 2.39474 -20.6036 -86.1329 -29.3891 80.5955 -3.84479 16.7031 -43.0022 41.2311 8.62997 -74.5993 15.7668 -2.61958 -20.1233 32.4554 7.77057 -6.40797 -21.2195 9.67561 2.94038 
-243.713 91.3086 246.945 85.4505 45.3936 99.1654 -172.768 -6.3942 92.5101 -56.3564 21.1568 3.51147 55.9366 -1.91334 3.52768 28.2987 1.105 -6.02714 177.805 35.5923 98.9149 -37.6387 -10.0707 1.18557 71.1649 -5.89034 -1.76426 27.8324 -0.419348 5.43896 -1.336 7.79847 -91.2029 11.2456 -3.21848 -2.07713 -0.422841 -3.30678 -1.93341 -22.9651 -2.44568 -2.94832 -2.95248 -2.44569 -2.94832 89.1311 -25.7831 -110.309 39.6582 5.3875 37.1489 -12.1349 -22.2775 -40.99 -36.0137 2.4505 -18.423 -88.7827 -40.0907 78.4064 0.384998 26.0461 -34.659 37.5267 6.19891 -74.0195 15.7228 -2.71537 -20.7449 29.3287 8.59054 -2.58865 -18.4506 9.01764 1.78466 
-233.939 90.6962 237.007 85.7254 43.9841 102.496 -169.902 9.15719 98.056 -76.7028 7.9862 3.22043 61.9186 2.72699 6.36431 26.7915 0.220586 -5.39473 174.887 30.6355 102.096 -43.8003 -13.5333 3.60588 71.8677 -6.90367 -2.1423 20.4588 1.36615 7.33414 -0.786456 7.66452 -91.8316 11.4944 -2.42052 -3.40375 -0.178507 -2.5679 -3.29406 -22.6838 -1.28661 -3.97301 -2.67114 -1.28664 -3.97303 90.7442 -27.9498 -106.047 38.0409 7.97221 20.3815 -19.2675 -27.42 -48.0844 -34.2973 1.52735 -17.8095 -89.9054 -51.1421 79.1275 -2.17827 30.4115 -20.1467 41.3878 10.4313 -72.6793 17.31 -2.81793 -20.0113 25.6975 9.66239 3.71291 -14.0244 7.94505 0.0901948 
-224.894 89.8395 228.038 88.0483 39.9579 102.058 -169.416 27.2567 97.0098 -87.8784 0.529872 3.50969 67.5549 6.97243 8.04336 18.7175 -3.92737 -4.45231 176.452 22.4132 103.619 -48.6202 -16.7429 2.44052 79.6129 -13.7057 -5.69803 22.2968 0.816288 7.469 0.120451 7.74692 -91.9135 11.3564 -0.652556 -3.74496 -0.319607 -0.816607 -3.71269 -22.8124 0.502297 -3.76802 -2.79971 0.502314 -3.76802 90.593 -29.0406 -105.926 38.0636 7.55407 0.0766478 -21.0815 -24.0803 -53.4967 -32.5384 1.97845 -19.6595 -88.8098 -52.2478 80.944 -12.597 27.8118 5.05073 45.3528 7.82173 -75.9529 19.4315 -2.80466 -18.2896 24.0336 8.31728 6.34547 -12.7321 5.89829 -0.940356 
-215.172 90.3523 218.146 86.9725 39.7058 99.0248 -173.257 40.1086 92.472 -82.6848 0.896976 3.26362 72.6947 10.0991 8.28561 21.248 -1.95473 -6.92066 177.649 9.73351 101.457 -44.6438 -13.8666 0.143321 85.1134 -16.4788 -2.79152 25.8037 -0.0820041 7.04375 1.00795 7.42535 -91.3598 12.026 1.36204 -2.86684 0.352444 1.23461 -2.92396 -22.1701 2.16037 -2.32536 -2.15746 2.16038 -2.32536 91.2565 -24.6753 -106.287 37.7908 6.43593 -10.8139 -25.3162 -21.1252 -63.8906 -38.3775 2.59285 -19.4723 -86.4585 -49.2369 83.9267 -20.4786 30.8683 26.4742 40.3193 -3.50986 -80.7838 14.2802 -2.54823 -21.2075 21.0897 3.93735 7.392 -13.4455 1.74701 -3.06265 
-204.108 93.5505 206.467 90.4862 40.892 91.4675 -175.756 38.7255 87.5416 -59.3369 -0.681335 1.32318 75.2713 10.8154 5.20234 20.7122 -3.69556 -2.0864 176.511 -5.40618 93.3819 -33.9254 -16.5778 -2.5946 72.2597 -8.27387 -3.97408 35.847 -2.97909 9.70297 2.16286 7.44866 -90.3721 12.0047 4.12471 -1.19105 0.339596 4.06831 -1.3717 -22.2483 4.29164 0.105908 -2.2356 4.29165 0.105919 93.4598 -20.6569 -102.91 38.9659 7.56104 -9.10751 -30.8678 -16.4107 -77.8107 -39.8131 2.31177 -18.3934 -85.7032 -42.6918 84.0552 -24.2528 32.3448 36.9816 41.9143 -9.0401 -84.5672 14.0073 -2.87327 -23.529 17.8127 -4.60516 0.240194 -14.941 -4.36185 -1.68677 
-191.818 97.0184 193.462 94.4447 41.0224 83.9689 -178.671 26.9023 84.6384 -24.5724 2.91806 -0.40499 66.7978 6.68109 2.93081 26.2978 -0.600419 -3.02018 172.661 -15.5353 85.6503 -31.1678 -22.4038 -5.58801 56.9045 2.81742 -1.359 25.1936 -0.314295 9.68146 3.00187 7.57578 -89.5741 11.7238 6.17002 0.194546 0.0676176 6.17261 -0.0782756 -22.5759 5.82521 2.04628 -2.56329 5.82521 2.04628 95.3143 -14.8018 -100.58 41.2209 5.27674 -3.11181 -27.6825 -9.95326 -84.959 -36.8738 3.64663 -22.3656 -85.7444 -37.6902 83.1039 -28.1635 29.9179 44.1013 44.7366 -13.0481 -87.7509 18.0194 -3.41354 -22.6921 13.5262 -10.2568 -6.37163 -16.4283 -8.27384 -1.19814 
